<?xml version="1.0" standalone="no"?>
<!DOCTYPE svg PUBLIC "-//W3C//DTD SVG 20010904//EN"
 "http://www.w3.org/TR/2001/REC-SVG-20010904/DTD/svg10.dtd">
<svg version="1.0" xmlns="http://www.w3.org/2000/svg"
 width="256.000000pt" height="256.000000pt" viewBox="0 0 256.000000 256.000000"
 preserveAspectRatio="xMidYMid meet">

<g transform="translate(0.000000,256.000000) scale(0.100000,-0.100000)"
fill="#000000" stroke="none">
<path d="M671 2544 c-103 -27 -221 -109 -221 -153 0 -11 11 -28 25 -37 25 -16
27 -15 100 34 146 99 307 95 433 -12 50 -41 64 -44 92 -16 29 29 25 43 -24 88
-105 97 -263 134 -405 96z"/>
<path d="M1769 2547 c-68 -19 -132 -61 -184 -119 -80 -90 -85 -106 -85 -319 0
-168 2 -188 18 -202 10 -10 28 -17 40 -17 21 0 22 -5 22 -75 l0 -75 -158 0
c-110 0 -162 -4 -170 -12 -16 -16 -15 -65 1 -75 6 -4 100 -10 207 -13 188 -5
197 -6 257 -34 73 -33 153 -113 186 -183 18 -39 22 -66 22 -148 0 -90 -3 -105
-28 -153 -33 -62 -83 -120 -126 -145 l-31 -18 0 96 c0 74 -4 104 -19 133 -70
136 -237 151 -335 29 -30 -38 -31 -41 -36 -170 l-5 -132 -281 -3 -282 -2 -3
122 c-5 144 -20 185 -88 233 -37 26 -51 30 -111 30 -60 0 -74 -4 -111 -30 -56
-40 -80 -89 -88 -182 l-6 -77 -28 37 c-16 21 -40 63 -55 95 -35 76 -36 189 -3
275 29 75 110 158 188 195 54 25 69 27 220 30 145 4 164 6 180 24 16 18 16 22
2 46 l-15 27 -169 0 c-142 -1 -178 -4 -215 -19 -25 -10 -57 -18 -72 -18 -68 2
-154 76 -191 164 -36 87 -96 71 -136 -36 -50 -137 -28 -266 64 -373 35 -41 35
-42 24 -94 -32 -151 38 -343 160 -436 30 -23 50 -46 50 -58 1 -29 -178 -494
-203 -528 -18 -25 -21 -43 -21 -132 0 -115 9 -138 75 -182 32 -22 41 -23 266
-23 l234 0 32 29 c31 27 33 34 32 88 -2 95 -57 192 -138 243 l-33 20 73 190
c40 105 74 201 76 213 l3 22 286 3 286 2 6 -29 c3 -15 42 -113 86 -215 l79
-187 -24 -36 c-21 -32 -24 -46 -24 -138 0 -89 3 -106 23 -136 42 -64 65 -69
315 -69 247 0 269 5 292 60 17 41 7 119 -22 177 -13 25 -48 69 -79 97 -54 49
-60 60 -146 261 -50 116 -93 220 -97 231 -6 18 2 26 46 52 61 34 147 121 176
178 40 78 55 151 50 248 -5 101 -26 161 -84 243 l-34 48 0 122 c0 101 3 123
15 123 32 0 124 42 161 74 35 30 47 34 114 38 96 6 167 37 221 95 64 70 82
120 87 249 6 151 16 144 -200 144 l-170 0 -42 34 c-87 72 -223 102 -327 73z
m210 -117 c24 -12 59 -37 77 -56 l35 -34 159 0 160 0 0 -46 c0 -80 -20 -134
-66 -180 -49 -50 -91 -64 -190 -64 -66 0 -72 -2 -100 -31 -62 -67 -197 -100
-279 -69 l-27 10 33 37 c46 53 70 114 76 196 7 101 -8 152 -63 203 l-45 42 38
11 c55 15 143 7 192 -19z m-250 -111 c21 -20 23 -28 19 -109 -3 -74 -7 -92
-31 -128 -22 -34 -88 -82 -112 -82 -4 0 -5 68 -3 151 3 145 4 152 27 170 31
25 72 24 100 -2z m33 -468 l48 -16 0 -77 c0 -43 -2 -78 -5 -78 -2 0 -24 9 -47
19 -24 11 -51 22 -60 25 -15 5 -18 18 -18 82 0 69 2 75 18 68 9 -4 38 -14 64
-23z m-1495 -206 l43 -27 -43 -48 c-33 -38 -45 -45 -56 -36 -28 22 -51 90 -51
150 l0 60 33 -35 c17 -20 51 -48 74 -64z m375 -474 l33 -29 0 -181 0 -181 -27
-27 c-39 -38 -97 -38 -136 0 l-27 27 0 181 0 181 33 29 c42 38 82 38 124 0z
m969 0 l29 -29 0 -172 c0 -187 -7 -216 -55 -238 -33 -15 -47 -15 -80 0 -48 22
-55 51 -55 238 l0 172 29 29 c41 40 91 40 132 0z m145 -606 c25 -61 50 -120
55 -132 8 -23 8 -23 -95 -23 l-103 0 -37 93 c-21 50 -41 98 -43 105 -3 8 5 12
23 12 35 0 104 31 123 54 8 9 18 13 22 9 5 -5 29 -58 55 -118z m-1271 85 c31
-16 70 -30 86 -30 16 0 29 -3 29 -7 0 -3 -16 -50 -37 -105 l-36 -98 -102 0
-102 0 51 135 c28 74 52 135 52 135 1 0 28 -13 59 -30z m107 -372 c53 -32 88
-81 95 -138 l6 -40 -205 0 c-145 0 -207 3 -216 12 -7 7 -12 44 -12 95 0 67 3
84 18 93 10 6 66 9 142 8 116 -3 128 -5 172 -30z m1262 21 c78 -19 136 -82
151 -162 l7 -37 -205 0 c-245 0 -237 -4 -237 105 0 102 5 105 136 105 58 0
125 -5 148 -11z"/>
<path d="M685 2337 c-27 -13 -61 -36 -75 -51 -23 -25 -24 -29 -9 -54 20 -37
44 -39 91 -5 58 40 128 39 187 -1 35 -24 45 -27 65 -18 84 38 -17 140 -149
149 -49 3 -69 0 -110 -20z"/>
<path d="M744 2135 c-15 -23 -15 -27 0 -50 27 -42 86 -26 86 23 0 55 -56 72
-86 27z"/>
<path d="M1027 1722 c-22 -25 -21 -45 3 -67 30 -27 74 -10 78 30 6 49 -48 73
-81 37z"/>
</g>
</svg>
